<svg width="512" height="512" viewBox="0 0 512 512" fill="none" xmlns="http://www.w3.org/2000/svg">
<rect width="512" height="512" fill="black"/>
<path d="M456.779 423.558C449.426 424.123 440.377 421.295 429.631 415.64C421.148 411.115 412.664 406.59 404.18 401.5C378.164 357.951 354.975 325.147 334.615 301.959C325.566 286.688 319.91 274.811 318.213 267.458C317.082 265.762 314.254 262.934 309.164 259.54C305.771 256.712 303.508 252.188 302.377 244.835C296.721 235.786 293.893 230.13 293.893 227.302C293.893 225.606 295.59 223.343 299.549 221.081C305.77 217.688 310.295 214.294 313.689 210.901C315.385 204.114 317.082 199.023 317.648 195.63C324.434 188.843 330.09 183.753 334.615 180.359C343.098 170.745 351.016 145.859 360.066 136.244C362.893 126.63 371.943 118.146 388.344 111.925C396.262 100.047 409.271 92.1294 427.369 88.1703C442.639 85.3425 449.992 80.2523 449.992 74.0309C449.992 70.6374 448.861 66.6784 447.164 61.5882L427.369 58.1947C426.238 59.3259 423.975 59.8915 421.148 59.8915C417.189 59.8915 401.352 56.498 396.828 57.0636C376.467 61.5882 370.812 63.8505 361.197 63.8505C356.672 63.8505 349.885 63.2849 340.271 62.7194C331.221 62.1538 324.434 61.5882 320.475 61.5882C314.82 61.5882 309.73 62.1538 305.771 62.7194C298.418 66.6784 293.893 69.5063 291.066 72.3342C289.934 74.0309 289.369 76.2932 289.369 77.9899C289.369 84.2113 293.893 87.6048 303.508 87.6048C306.902 87.6048 309.73 87.0392 312.557 85.3425C327.262 90.4326 334.615 100.047 334.615 114.752C334.615 126.63 329.525 136.244 319.344 144.162C315.385 152.646 311.426 157.736 307.467 160.564C303.508 172.441 302.377 183.753 288.803 192.237C286.541 193.933 284.279 197.327 281.451 203.548C278.623 209.204 276.361 212.032 274.664 212.032L272.402 210.901C264.484 204.679 257.131 195.064 250.344 182.622L234.508 149.818C233.377 146.99 229.418 142.466 222.631 136.244C215.844 129.457 212.451 124.367 211.885 121.539C210.754 116.449 211.32 110.793 213.582 103.441C215.279 101.179 216.975 97.2196 218.672 90.9982C220.369 87.0392 223.762 83.0802 228.852 80.2523C231.68 81.3834 233.943 81.949 236.77 81.949C243.557 81.949 246.951 78.5555 246.951 71.7686C246.951 66.6784 244.689 62.1538 240.164 58.1947C236.205 57.6292 228.287 58.1947 215.844 61.0226C201.705 63.8505 189.828 65.5472 179.648 65.5472C165.508 65.5472 150.803 63.2849 135.533 58.1947C131.008 61.0226 127.049 62.1538 123.09 62.1538C123.656 62.1538 116.869 60.457 101.598 57.0636L93.1148 62.1538C90.8525 61.5882 88.5902 61.5882 85.7623 61.5882C77.2787 61.5882 69.3607 63.2849 62.0082 66.6784C53.5246 70.6374 49 76.2932 49 82.5146C49 89.8671 51.8279 93.8261 56.918 93.8261C59.7459 93.8261 68.2295 90.4327 68.7951 90.4327C69.3607 90.9982 78.9754 93.8261 97.6393 99.4819C108.385 102.875 115.738 109.662 119.697 119.277C121.959 118.711 127.049 123.236 135.533 133.982C140.623 140.769 145.148 147.556 150.238 153.777C149.107 159.999 149.672 163.958 151.934 165.654C155.893 165.654 163.246 173.007 172.861 188.278C182.475 202.983 187.566 212.597 187 217.688C190.959 219.384 197.18 226.171 206.795 237.483C216.41 248.229 222.631 255.581 224.893 259.54C226.59 262.934 224.893 268.024 219.803 274.811C220.369 277.639 218.672 281.598 214.713 286.122L205.664 295.172L185.303 326.844C173.992 343.246 167.77 351.729 166.074 352.295C163.246 360.779 156.459 370.393 146.844 380.008C137.23 389.623 128.18 395.844 119.697 399.238C114.607 406.59 104.426 411.681 90.2869 414.508C78.9754 416.205 67.6639 417.336 55.7869 418.467C51.2623 425.82 49 432.041 49 436.566C52.959 445.05 60.3115 449.009 71.0574 449.009C76.1475 449.009 82.3689 447.877 90.8525 446.181C94.2459 445.615 98.2049 446.181 102.164 447.877C107.82 450.705 111.213 451.837 112.91 451.837C115.738 452.402 121.393 449.009 129.311 442.787C135.533 446.746 142.32 449.574 150.803 450.14C153.631 450.705 158.721 449.009 164.943 446.181C168.336 444.484 176.82 444.484 190.393 445.615C203.967 446.746 212.451 446.181 216.41 443.918C222.066 441.091 224.893 436.566 224.893 429.213C224.893 424.123 223.197 420.164 220.369 416.771C206.795 419.599 196.615 416.205 190.393 407.721C189.828 396.976 194.918 375.484 201.139 368.697V363.041C206.795 351.164 214.713 338.155 224.328 324.016C237.336 304.786 246.385 296.303 251.475 299.131C254.869 300.827 257.131 303.655 257.697 307.049C259.393 312.139 260.525 314.967 261.656 316.664C267.311 322.319 271.836 326.278 275.23 327.975C276.361 329.672 280.885 337.024 288.238 350.598C296.156 363.606 300.68 371.525 301.246 373.787C310.861 382.271 318.213 391.885 324.434 402.631C321.041 414.508 314.254 421.295 303.508 421.861C289.369 421.295 259.393 421.861 263.918 438.828C267.877 448.443 273.533 453.533 282.016 453.533C286.541 453.533 298.418 451.271 302.377 450.705C305.205 450.14 309.164 451.271 313.123 454.099C318.213 454.664 322.738 455.23 326.697 455.23C340.271 455.23 365.156 446.181 378.73 446.181C384.951 446.181 391.172 446.746 397.959 448.443C399.656 449.009 401.918 448.443 404.746 447.877C407.574 447.312 410.402 447.312 412.664 447.877C414.361 448.443 417.189 449.574 421.148 452.402C423.975 454.664 427.369 455.796 430.762 455.796C444.902 457.492 463 448.443 463 435.435C463 433.172 462.434 430.91 461.869 428.648L456.779 423.558Z" fill="#FFD56F"/>
</svg>
