<svg width="509" height="94" viewBox="0 0 509 94" fill="none" xmlns="http://www.w3.org/2000/svg">
<path d="M84.1315 77.712C84.0035 76.56 84.0035 74.896 84.1315 72.848C84.3875 70.16 84.5155 68.496 84.5155 67.856C84.5155 63.888 83.1075 61.072 80.4195 59.152H79.3955C77.2195 60.816 76.3235 63.632 76.8355 67.728C76.9635 68.624 76.4515 69.52 75.5555 70.672C74.6595 71.44 73.8915 72.208 73.1235 73.104C73.1235 74.64 71.4595 76.56 68.2595 78.864L61.3475 83.216L56.0995 84.496C55.2035 84.112 53.4115 83.856 50.7235 83.728C48.1635 83.6 45.9875 82.96 44.1955 82.064C40.3555 82.448 36.6435 81.424 32.9315 79.12C29.7315 77.072 27.0435 74.256 24.8675 70.672C24.2275 69.904 23.5875 69.392 23.2035 69.136C21.2835 64.144 19.8755 60.304 18.9795 57.616C18.0835 56.848 17.6995 54.672 17.6995 51.216C17.6995 44.048 18.5955 37.008 20.5155 29.968L23.2035 24.208C25.8915 20.112 28.0675 15.632 33.6995 13.456C34.5955 13.072 35.3635 9.87199 36.2595 9.35999C36.6435 9.104 37.5395 9.104 38.6915 9.23199L41.1235 9.744C42.0195 8.592 43.0435 7.952 44.1955 7.952C45.2195 7.952 47.9075 8.848 49.0595 8.71999C49.5715 8.71999 51.1075 7.184 52.0035 7.184C53.2835 8.07999 54.4355 8.464 55.3315 8.464C55.9715 8.464 57.3795 7.952 58.2755 7.952C59.2995 7.952 60.7075 8.464 62.3715 9.616C63.1395 9.744 65.4435 11.28 69.1555 14.48C72.9955 17.68 75.0435 19.472 75.2995 20.112C76.4515 23.824 77.0915 26.768 77.4755 28.688C77.8595 30.352 78.8835 31.12 80.4195 31.12C80.9315 31.12 81.3155 30.864 81.5715 30.352C82.4675 28.816 82.8515 27.152 82.8515 25.232C82.8515 24.08 82.5955 22.544 82.2115 20.624L81.3155 15.888C81.1875 14.352 81.1875 12.304 81.3155 9.744C81.4435 6.28799 81.5715 4.24 81.5715 3.6C81.5715 2.448 80.9315 1.936 79.6515 1.936C79.3955 1.936 79.1395 1.936 78.8835 2.064C78.6275 1.936 78.3715 1.936 78.1155 1.936C76.7075 1.936 75.1715 4.88 74.2755 5.26399C73.8915 5.392 73.5075 5.392 73.1235 5.392C71.9715 5.392 70.1795 4.88 68.0035 3.98399L63.1395 2.064C60.5795 1.296 57.5075 0.783997 54.0515 0.527992L44.9635 0.143997C44.3235 0.655998 43.4275 1.03999 42.4035 1.168C41.6355 1.296 40.6115 1.296 39.3315 1.168C37.9235 1.03999 36.8995 1.03999 36.5155 1.03999C33.4435 1.168 30.1155 2.576 26.6595 5.008C22.5635 7.952 19.6195 9.744 17.8275 10.256C16.8035 11.152 16.0355 11.792 15.6515 12.304C15.1395 12.688 12.7075 12.944 12.1955 13.84C11.8115 15.76 10.7875 18.704 9.1235 22.672C7.2035 27.152 5.5395 29.712 4.3875 30.352C4.1315 31.376 3.8755 32.4 3.7475 33.424C3.3635 34.832 2.9795 35.6 2.3395 35.728C2.3395 37.136 2.2115 38.288 1.8275 39.056L1.0595 41.232C0.6755 43.152 0.6755 45.712 0.9315 48.784C1.3155 52.24 1.8275 54.544 2.7235 55.696C2.7235 55.824 2.8515 56.336 2.9795 57.36C3.1075 58 2.8515 58.512 2.4675 58.896C2.2115 59.536 2.0835 60.304 2.0835 61.072C2.0835 62.992 3.3635 65.552 5.7955 68.496C8.4835 71.824 10.0195 74.256 10.4035 75.792C11.0435 76.176 11.4275 76.56 11.8115 77.072L13.3475 77.2C18.8515 83.984 25.8915 88.464 34.2115 90.896C34.5955 90.512 35.1075 90.256 35.6195 90.256C36.5155 90.256 37.5395 91.152 38.8195 92.944C40.0995 92.816 40.9955 92.56 41.6355 92.176C42.1475 92.176 43.8115 93.2 44.4515 93.2C44.7075 93.2 44.9635 93.072 45.2195 92.944C46.3715 92.176 47.2675 91.792 48.0355 91.792C49.0595 91.792 51.4915 92.944 52.5155 92.944C52.8995 92.944 54.8195 92.176 58.2755 90.512C59.5555 90 61.7315 89.744 64.6755 89.744H66.7235C69.5395 89.616 71.4595 89.36 72.6115 88.976C74.0195 88.336 76.0675 86.544 78.4995 83.728C81.4435 80.4 83.3635 78.352 84.1315 77.712ZM204.776 89.36C205.16 86.928 204.52 84.88 202.856 83.216C201.448 82.704 198.504 82.192 194.152 81.808C191.208 81.552 188.008 80.272 184.808 77.84C181.608 74.768 178.92 72.08 176.872 69.904C174.951 69.52 173.544 69.008 172.904 68.624C171.752 67.856 171.368 66.576 171.496 64.912C169.704 64.528 167.784 62.864 165.608 60.176C163.048 56.848 161.256 54.8 160.232 54.16L157.416 52.368C156.264 51.472 155.88 50.576 156.008 49.68C156.136 49.168 157.288 48.4 159.72 47.504L164.327 45.968C165.479 45.456 167.144 44.432 169.192 42.896C171.368 41.232 172.648 39.952 173.288 38.928C173.928 37.776 174.696 34.064 175.848 32.528C176.488 30.096 176.744 28.304 176.488 27.152C176.744 26.256 176.872 25.232 176.872 24.336C176.872 19.984 174.312 14.864 169.192 9.104C167.144 8.592 167.528 7.184 165.864 6.28799C163.304 4.88 161.128 4.368 160.104 3.856C158.312 3.98399 157.032 4.112 156.136 4.368C156.008 4.368 155.24 4.24 153.96 3.856C153.064 3.6 152.424 3.6 151.784 3.728C149.608 4.112 148.2 4.368 147.432 4.24C146.792 4.112 145.512 3.728 143.336 2.96C142.44 2.576 141.16 2.83199 139.496 3.6C138.6 3.6 136.808 3.34399 134.12 2.96C131.816 2.576 130.024 2.576 128.872 2.70399C127.72 3.34399 126.824 3.856 126.44 4.24C125.544 4.368 123.624 4.24 120.936 3.6C118.248 2.96 116.712 2.83199 116.328 2.96C115.048 3.856 113.896 4.24 112.744 4.24C111.72 4.24 109.544 3.6 108.392 3.6C107.752 3.6 107.112 3.728 106.344 3.856C104.68 4.368 103.016 4.24 101.48 3.34399C99.5595 4.24 98.6635 5.64799 98.6635 7.696C98.6635 8.336 98.9195 8.976 99.4315 9.616C100.456 10.768 102.632 11.408 105.832 11.536C108.776 11.664 110.952 12.816 112.36 14.992C113.256 15.632 113.768 17.04 113.896 19.216C114.152 25.744 114.28 36.624 114.28 51.984C114.28 52.624 114.024 54.16 113.64 56.72C113.256 59.28 113 60.688 113 60.816C113.64 63.248 113.896 66.576 113.896 70.8C113.896 75.536 113.896 77.968 113.896 77.968L112.36 81.04C111.72 82.192 111.08 82.832 110.184 82.96C108.135 82.832 106.088 83.216 104.168 84.368C102.248 85.392 101.224 86.544 101.224 87.696C101.224 88.592 101.864 89.36 103.016 90C105.448 90.896 107.112 91.408 108.264 91.664C109.416 90.768 110.568 90.384 111.464 90.384C112.488 90.384 114.792 91.664 116.328 91.664L118.76 89.744C120.68 89.36 125.032 90.512 126.568 90.384L128.104 89.616C128.616 89.36 129.256 89.36 129.896 89.616C130.92 90 132.84 90.128 135.784 90.128C138.984 90.128 140.776 89.872 141.288 89.36C141.544 89.104 141.672 88.72 141.672 88.208C141.672 86.8 140.904 85.392 139.24 83.984C137.319 82.32 134.888 81.296 131.944 80.912C130.92 80.784 129.512 77.584 129.512 76.176C129.512 76.304 129.384 73.744 129.256 68.368C129.128 65.424 129.256 62.864 129.64 60.688C129.256 59.408 129 58.256 129 57.104C129 53.392 130.664 51.344 133.864 50.832L136.936 52.368L141.544 53.264C142.312 54.16 143.464 55.952 145 58.512C146.536 61.072 147.944 62.992 149.224 64.272C150.248 65.168 151.016 65.808 151.656 66.192C153.32 68.752 154.728 71.44 157.416 73.872C158.312 75.28 158.696 76.432 158.824 77.328C160.616 80.272 162.024 82.32 163.176 83.728C164.072 83.472 165.352 84.112 167.144 85.776L170.856 88.848C172.52 89.744 174.44 90.128 176.872 90.256C178.024 90.128 179.048 90.128 180.2 90.128C181.608 91.024 184.424 91.408 188.52 91.28C193.512 91.152 196.456 91.28 197.48 91.408C197.992 91.536 200.04 92.816 200.552 92.688C202.088 91.792 203.368 90.896 204.264 90.128L204.776 89.36ZM158.568 37.264C157.416 37.392 156.648 37.648 156.392 38.288C155.752 39.952 155.112 41.104 154.472 41.744L151.528 43.92C149.224 44.304 146.92 44.944 144.744 45.968C143.592 46.608 142.568 46.736 141.544 46.608C140.264 46.352 139.368 46.352 138.728 46.48C136.552 47.12 135.016 47.76 133.992 48.144C132.328 47.504 131.048 46.992 130.28 46.864C129.896 46.608 129.64 46.096 129.64 45.328C129.64 44.304 130.28 41.488 130.28 40.592L128.744 37.52C128.488 36.496 128.36 34.576 128.36 31.76C128.36 19.344 129.384 12.432 131.432 11.024C133.479 10.64 135.144 10.512 136.552 10.384C137.192 10.64 137.832 10.768 138.216 10.768C139.368 10.768 140.392 9.488 141.416 9.488C146.152 9.87199 148.968 11.024 149.864 12.816C152.936 15.12 154.728 17.424 155.112 19.856C156.648 21.776 157.544 24.592 157.8 28.304C158.312 34.192 158.568 37.136 158.568 37.264ZM299.482 7.184C302.426 5.904 303.834 4.88 303.834 3.98399C303.834 2.70399 300.634 1.936 294.234 1.67999L283.226 1.296C279.514 2.70399 276.314 2.83199 273.626 1.936C271.066 2.31999 270.042 3.856 270.554 6.28799C271.45 7.43999 272.474 7.952 273.754 8.07999C276.186 8.20799 277.85 8.336 278.49 8.71999C278.874 8.976 279.514 9.744 280.41 11.024C281.306 12.304 281.946 12.944 282.074 12.944C283.226 16.784 283.354 20.112 282.586 23.056C282.97 23.312 283.226 24.208 283.354 25.744C283.482 26.768 283.482 28.176 283.354 29.968C283.226 32.144 283.098 33.168 283.098 33.04L282.458 34.064C282.714 35.472 282.714 37.264 282.33 39.696C282.714 41.104 282.842 45.84 282.714 53.776C282.586 61.968 282.074 66.576 281.434 67.6C281.69 69.264 280.794 71.568 278.618 74.768C276.57 77.968 274.778 79.76 273.242 80.4C272.09 80.912 269.402 80.528 267.354 82.192C263.002 82.96 260.826 83.344 260.698 83.344C260.058 83.344 259.546 83.344 259.162 83.216C257.754 84.624 256.346 84.496 255.066 82.832C254.682 82.96 254.042 83.088 253.402 83.088C250.97 83.088 248.282 82.448 245.21 81.04C241.882 79.504 240.09 77.968 239.833 76.304C237.018 75.664 235.61 74.128 235.61 71.952C235.61 71.568 235.738 71.056 235.866 70.544C234.202 66.832 233.434 64.144 233.69 62.48C232.922 61.072 232.666 58.384 232.794 54.544C232.922 50.32 232.794 47.376 232.282 45.968L233.434 43.664C233.818 42.512 233.946 41.744 233.818 41.36C232.922 39.952 232.41 38.928 232.41 38.288L232.794 35.216C232.922 20.88 233.05 13.712 233.178 13.712C234.202 12.432 235.098 11.792 235.994 11.792C236.378 11.024 238.298 10.128 241.498 8.976C244.442 8.07999 245.978 7.056 245.978 6.032C245.978 5.13599 245.21 4.112 243.546 2.83199L232.282 3.728C231.386 3.088 230.234 2.83199 228.57 3.216C228.058 3.6 227.418 3.856 226.65 3.856C225.753 3.856 222.938 3.216 221.914 3.216C220.762 2.31999 219.866 1.936 219.354 1.936C218.714 1.936 217.946 2.31999 216.794 3.088C217.562 2.96 215.514 2.96 210.65 2.96C207.45 2.96 205.529 4.368 205.145 7.184C205.785 8.20799 207.962 9.35999 211.674 10.512C214.618 11.536 216.026 13.2 216.026 15.376C216.026 16.784 215.13 20.624 215.13 22.672C215.13 24.336 215.385 26.768 215.77 29.968C216.154 33.168 216.41 35.472 216.41 37.008C216.41 38.672 216.154 40.336 215.77 41.744C215.514 48.528 215.514 54.416 215.77 59.152C215.77 59.792 216.154 60.688 217.05 61.712C216.922 62.864 217.178 64.656 217.562 66.96C217.946 69.52 218.202 71.312 218.202 72.464C219.866 75.408 220.89 77.712 221.402 79.248C221.786 79.76 223.706 80.4 223.833 81.424C224.474 81.808 225.882 83.088 227.802 85.008C229.338 86.672 230.746 87.696 232.026 88.08C232.666 88.336 234.074 88.592 235.994 88.72C238.042 88.848 239.322 88.976 239.833 89.36C240.986 90.256 241.882 91.024 242.266 91.664C242.778 91.792 243.29 91.92 243.674 91.92C244.314 91.92 245.85 91.536 246.49 91.536C247.642 91.536 249.05 92.048 250.714 92.944C252.634 93.072 255.578 92.688 259.546 91.92C263.258 91.28 266.074 91.024 267.738 91.28C273.882 87.696 278.746 84.112 282.201 80.528C283.61 80.272 285.018 78.992 286.682 76.688C288.73 73.744 290.01 71.952 290.65 71.568C291.802 66.96 292.314 60.432 292.314 52.112C292.314 48.272 292.058 46.224 291.418 45.968C292.314 44.816 292.698 43.28 292.698 41.616V37.136C292.314 34.192 292.186 31.632 292.314 29.712C292.698 23.568 292.954 17.936 292.954 12.944C293.594 11.792 294.106 10.896 294.234 10.256C294.746 9.488 295.77 8.848 297.178 8.464C298.714 8.07999 299.482 7.56799 299.482 7.184ZM402.937 84.88C401.273 85.008 399.225 84.368 396.793 83.088C394.873 82.064 392.953 81.04 391.033 79.888C385.145 70.032 379.896 62.608 375.289 57.36C373.241 53.904 371.961 51.216 371.577 49.552C371.321 49.168 370.681 48.528 369.529 47.76C368.761 47.12 368.249 46.096 367.993 44.432C366.713 42.384 366.073 41.104 366.073 40.464C366.073 40.08 366.457 39.568 367.353 39.056C368.761 38.288 369.785 37.52 370.553 36.752C370.937 35.216 371.321 34.064 371.449 33.296C372.985 31.76 374.265 30.608 375.289 29.84C377.209 27.664 379.001 22.032 381.049 19.856C381.689 17.68 383.737 15.76 387.449 14.352C389.241 11.664 392.185 9.87199 396.281 8.976C399.737 8.336 401.401 7.184 401.401 5.77599C401.401 5.008 401.145 4.112 400.761 2.96L396.281 2.19199C396.025 2.448 395.513 2.576 394.873 2.576C393.977 2.576 390.393 1.808 389.369 1.936C384.761 2.96 383.481 3.47199 381.305 3.47199C380.281 3.47199 378.745 3.34399 376.569 3.216C374.521 3.088 372.985 2.96 372.089 2.96C370.809 2.96 369.657 3.088 368.761 3.216C367.097 4.112 366.073 4.752 365.433 5.392C365.177 5.77599 365.049 6.28799 365.049 6.672C365.049 8.07999 366.073 8.848 368.249 8.848C369.017 8.848 369.657 8.71999 370.297 8.336C373.625 9.488 375.289 11.664 375.289 14.992C375.289 17.68 374.137 19.856 371.833 21.648C370.937 23.568 370.041 24.72 369.145 25.36C368.249 28.048 367.993 30.608 364.921 32.528C364.409 32.912 363.897 33.68 363.257 35.088C362.617 36.368 362.105 37.008 361.721 37.008L361.209 36.752C359.417 35.344 357.753 33.168 356.217 30.352L352.633 22.928C352.377 22.288 351.481 21.264 349.944 19.856C348.409 18.32 347.641 17.168 347.513 16.528C347.257 15.376 347.385 14.096 347.897 12.432C348.281 11.92 348.665 11.024 349.049 9.616C349.433 8.71999 350.201 7.824 351.353 7.184C351.993 7.43999 352.505 7.56799 353.145 7.56799C354.681 7.56799 355.449 6.8 355.449 5.26399C355.449 4.112 354.937 3.088 353.913 2.19199C353.017 2.064 351.225 2.19199 348.409 2.83199C345.208 3.47199 342.521 3.856 340.217 3.856C337.017 3.856 333.689 3.34399 330.233 2.19199C329.208 2.83199 328.312 3.088 327.417 3.088C327.545 3.088 326.009 2.70399 322.553 1.936L320.633 3.088C320.121 2.96 319.609 2.96 318.969 2.96C317.049 2.96 315.257 3.34399 313.593 4.112C311.672 5.008 310.648 6.28799 310.648 7.696C310.648 9.35999 311.288 10.256 312.441 10.256C313.081 10.256 315.001 9.488 315.129 9.488C315.257 9.616 317.433 10.256 321.657 11.536C324.089 12.304 325.753 13.84 326.649 16.016C327.161 15.888 328.312 16.912 330.233 19.344C331.385 20.88 332.409 22.416 333.561 23.824C333.305 25.232 333.433 26.128 333.945 26.512C334.841 26.512 336.505 28.176 338.681 31.632C340.857 34.96 342.009 37.136 341.881 38.288C342.777 38.672 344.185 40.208 346.361 42.768C348.537 45.2 349.944 46.864 350.457 47.76C350.841 48.528 350.457 49.68 349.305 51.216C349.433 51.856 349.049 52.752 348.153 53.776L346.104 55.824L341.497 62.992C338.937 66.704 337.529 68.624 337.145 68.752C336.505 70.672 334.969 72.848 332.793 75.024C330.617 77.2 328.569 78.608 326.649 79.376C325.497 81.04 323.193 82.192 319.993 82.832C317.433 83.216 314.873 83.472 312.184 83.728C311.16 85.392 310.648 86.8 310.648 87.824C311.544 89.744 313.209 90.64 315.641 90.64C316.793 90.64 318.201 90.384 320.121 90C320.889 89.872 321.785 90 322.681 90.384C323.961 91.024 324.729 91.28 325.113 91.28C325.753 91.408 327.033 90.64 328.825 89.232C330.233 90.128 331.769 90.768 333.689 90.896C334.329 91.024 335.481 90.64 336.889 90C337.657 89.616 339.577 89.616 342.649 89.872C345.721 90.128 347.641 90 348.537 89.488C349.817 88.848 350.457 87.824 350.457 86.16C350.457 85.008 350.073 84.112 349.433 83.344C346.361 83.984 344.057 83.216 342.649 81.296C342.521 78.864 343.673 74 345.081 72.464V71.184C346.361 68.496 348.153 65.552 350.329 62.352C353.273 58 355.321 56.08 356.473 56.72C357.241 57.104 357.753 57.744 357.881 58.512C358.265 59.664 358.521 60.304 358.777 60.688C360.057 61.968 361.081 62.864 361.849 63.248C362.105 63.632 363.129 65.296 364.793 68.368C366.585 71.312 367.609 73.104 367.737 73.616C369.913 75.536 371.577 77.712 372.985 80.144C372.217 82.832 370.681 84.368 368.249 84.496C365.049 84.368 358.265 84.496 359.289 88.336C360.185 90.512 361.465 91.664 363.385 91.664C364.409 91.664 367.097 91.152 367.993 91.024C368.633 90.896 369.529 91.152 370.425 91.792C371.577 91.92 372.601 92.048 373.497 92.048C376.569 92.048 382.201 90 385.273 90C386.681 90 388.089 90.128 389.625 90.512C390.009 90.64 390.521 90.512 391.161 90.384C391.801 90.256 392.441 90.256 392.953 90.384C393.337 90.512 393.977 90.768 394.873 91.408C395.513 91.92 396.281 92.176 397.049 92.176C400.249 92.56 404.345 90.512 404.345 87.568C404.345 87.056 404.217 86.544 404.089 86.032L402.937 84.88ZM498.841 11.536C499.737 10 501.017 9.23199 502.681 9.23199C503.833 9.23199 506.521 10 507.161 10C508.313 10 508.953 9.104 508.953 7.184C508.953 4.752 507.033 2.83199 504.473 2.83199C501.145 3.216 498.585 3.6 496.921 3.98399C491.161 4.368 486.809 4.49599 483.609 4.24C482.073 4.112 478.233 2.70399 476.569 2.70399C475.929 2.70399 475.289 2.83199 474.649 3.088C471.833 4.112 470.425 5.64799 470.425 7.56799C470.425 8.20799 470.681 8.592 471.065 8.976C471.449 9.23199 473.625 9.488 477.593 9.616C480.153 9.744 481.945 10.64 483.097 12.432C483.225 12.56 483.353 12.944 483.353 13.328C483.609 14.736 483.609 17.424 483.481 21.392C483.353 25.232 483.481 28.176 483.993 30.096C484.121 30.608 484.121 31.376 483.865 32.4C483.737 33.424 483.737 34.192 483.865 34.704C483.353 38.032 482.969 40.848 482.84 43.024C481.433 43.152 480.409 43.28 479.641 43.28C478.873 43.152 477.465 43.408 475.289 44.048C473.241 44.56 471.705 44.816 470.681 44.688C470.169 44.688 469.145 44.432 467.737 43.92C466.329 43.28 465.561 43.024 465.177 43.024C464.281 43.152 463.129 43.536 461.465 44.432C457.881 44.432 453.017 43.408 450.329 43.408C449.049 43.408 447.641 43.536 446.104 43.664C446.233 43.664 445.337 43.664 443.417 43.664C443.033 43.536 441.881 44.176 439.833 45.456C437.401 45.584 436.249 44.688 436.249 43.024C436.249 42.64 436.377 42.128 436.633 41.488L436.505 33.808C436.505 32.656 437.785 30.608 437.785 29.2C437.785 28.816 437.657 28.304 437.529 27.92C437.401 27.536 437.401 24.976 437.273 20.368C437.273 15.888 437.273 13.328 437.401 12.944C437.785 11.28 439.449 9.87199 442.265 8.71999C445.081 7.56799 446.489 6.8 446.489 6.16C446.489 5.77599 446.233 5.26399 445.721 4.752C444.825 4.368 442.649 4.112 438.937 3.98399C435.737 3.856 433.817 3.6 433.177 2.96C429.977 3.856 426.521 4.368 422.809 4.49599C421.273 4.49599 420.889 3.47199 419.993 3.47199C419.353 3.47199 418.201 3.728 416.536 4.24C416.153 3.856 415.769 3.728 415.257 3.728C415.129 3.728 414.105 4.112 412.441 4.752C412.056 5.13599 411.8 5.64799 411.8 6.16C411.8 8.20799 414.745 10.64 416.665 10.64C417.177 10.256 417.689 10 418.073 10C420.505 10 422.041 15.12 422.041 20.24C422.041 22.16 421.785 23.696 421.401 24.848C421.401 26.384 421.529 29.328 421.785 33.808C422.041 37.52 422.169 40.592 422.041 42.896C422.041 43.664 421.913 45.968 421.657 49.68C421.529 52.496 421.401 54.8 421.401 56.592C421.401 57.488 422.041 60.304 421.913 61.456C421.529 64.656 421.273 66.192 421.145 65.808L421.529 68.368C421.657 69.52 421.657 70.288 421.529 70.544C420.633 71.952 420.249 73.232 420.249 74.128C420.249 75.536 421.913 77.968 421.913 79.12C421.913 80.656 419.993 82.064 416.025 83.216C412.056 84.368 410.136 85.776 410.136 87.184C410.136 87.824 410.392 88.464 410.776 89.104L414.361 91.92C415.897 90.768 418.329 90.128 421.657 90L429.465 89.744C432.665 89.36 434.969 89.36 436.377 89.872C438.937 90.768 441.241 90.768 443.417 90.128C443.673 90 444.057 89.872 444.441 89.872C446.361 89.744 447.513 89.616 447.769 89.232C448.153 88.592 448.281 87.696 448.153 86.8C448.025 85.648 447.513 85.136 446.617 85.008L443.929 85.648C443.033 85.52 441.881 84.88 440.345 83.6C438.809 82.32 437.913 81.296 437.785 80.4C437.657 79.504 437.657 77.712 437.657 74.896C437.657 72.976 437.273 71.056 436.505 69.392C436.377 69.136 436.249 66.96 435.993 62.736C435.865 58.512 435.737 56.336 435.737 56.208C436.633 55.312 437.145 54.544 437.145 53.776C437.145 53.392 436.889 52.496 436.889 52.368C436.889 51.728 437.273 51.216 438.169 50.704C439.321 50.576 441.241 50.832 443.929 51.344C446.745 51.728 448.409 51.856 449.049 51.728C452.249 50.96 454.809 50.576 456.601 50.576C458.265 50.576 460.569 50.96 463.769 51.6C465.433 51.984 469.529 50.704 470.937 50.704C472.217 50.704 473.369 51.088 474.521 51.984C475.417 52.112 476.569 52.112 477.977 51.728L481.433 50.96L482.969 52.24C482.969 53.392 483.097 55.312 483.481 58.128C483.737 60.56 483.865 62.48 483.865 63.888C483.865 65.552 483.737 67.088 483.353 68.496C483.353 71.312 483.353 74.128 483.225 76.816C483.097 80.016 481.817 82.32 479.385 83.728C477.849 84.624 476.952 85.136 476.825 85.392C475.289 85.52 472.857 83.984 471.961 83.984C470.681 83.984 470.041 84.752 470.041 86.16C470.041 86.8 470.425 88.208 471.065 90.384C471.833 90.896 472.729 91.152 473.753 91.152C474.137 91.152 475.161 91.024 476.825 90.768C478.104 90.64 479.129 90.64 479.896 90.768C481.817 91.152 482.585 91.28 482.201 91.28C483.609 90.768 484.505 90.384 485.017 90C485.657 89.872 486.553 90 487.961 90.384C489.369 90.896 490.265 91.152 490.649 91.024C494.361 89.616 496.409 88.976 496.537 88.976C497.689 88.976 498.841 89.36 500.249 90.256C501.401 90.384 502.297 90.384 502.937 90.128C503.449 90.128 505.241 91.152 505.881 91.152C507.033 91.152 507.673 90.512 507.673 89.104C507.673 87.44 506.905 85.904 505.241 84.624C501.017 84.88 498.969 81.936 498.969 75.792C498.969 74.384 499.097 72.72 499.225 70.672C499.481 68.24 499.609 66.96 499.609 66.576C499.737 64.912 498.585 62.224 498.585 60.816C498.585 59.92 498.713 59.024 499.097 58.128V51.984C498.457 51.344 498.201 50.576 498.201 49.68C498.201 49.168 498.457 48.016 498.841 46.352C499.225 44.944 499.225 43.792 499.097 43.152C498.201 39.696 497.945 35.088 498.329 29.328C498.329 28.816 498.457 27.792 498.841 26.384C499.097 25.232 499.225 24.208 499.225 23.312C498.841 18.96 498.713 14.992 498.841 11.536Z" fill="#FFD56F"/>
</svg>
