<svg width="402" height="94" viewBox="0 0 402 94" fill="none" xmlns="http://www.w3.org/2000/svg">
<path d="M-23.3685 78.212C-23.4965 77.06 -23.4965 75.396 -23.3685 73.348C-23.1125 70.66 -22.9845 68.996 -22.9845 68.356C-22.9845 64.388 -24.3925 61.572 -27.0805 59.652H-28.1045C-30.2805 61.316 -31.1765 64.132 -30.6645 68.228C-30.5365 69.124 -31.0485 70.02 -31.9445 71.172C-32.8405 71.94 -33.6085 72.708 -34.3765 73.604C-34.3765 75.14 -36.0405 77.06 -39.2405 79.364L-46.1525 83.716L-51.4005 84.996C-52.2965 84.612 -54.0885 84.356 -56.7765 84.228C-59.3365 84.1 -61.5125 83.46 -63.3045 82.564C-67.1445 82.948 -70.8565 81.924 -74.5685 79.62C-77.7685 77.572 -80.4565 74.756 -82.6325 71.172C-83.2725 70.404 -83.9125 69.892 -84.2965 69.636C-86.2165 64.644 -87.6245 60.804 -88.5205 58.116C-89.4165 57.348 -89.8005 55.172 -89.8005 51.716C-89.8005 44.548 -88.9045 37.508 -86.9845 30.468L-84.2965 24.708C-81.6085 20.612 -79.4325 16.132 -73.8005 13.956C-72.9045 13.572 -72.1365 10.372 -71.2405 9.85999C-70.8565 9.604 -69.9605 9.604 -68.8085 9.73199L-66.3765 10.244C-65.4805 9.092 -64.4565 8.452 -63.3045 8.452C-62.2805 8.452 -59.5925 9.348 -58.4405 9.21999C-57.9285 9.21999 -56.3925 7.684 -55.4965 7.684C-54.2165 8.57999 -53.0645 8.964 -52.1685 8.964C-51.5285 8.964 -50.1205 8.452 -49.2245 8.452C-48.2005 8.452 -46.7925 8.964 -45.1285 10.116C-44.3605 10.244 -42.0565 11.78 -38.3445 14.98C-34.5045 18.18 -32.4565 19.972 -32.2005 20.612C-31.0485 24.324 -30.4085 27.268 -30.0245 29.188C-29.6405 30.852 -28.6165 31.62 -27.0805 31.62C-26.5685 31.62 -26.1845 31.364 -25.9285 30.852C-25.0325 29.316 -24.6485 27.652 -24.6485 25.732C-24.6485 24.58 -24.9045 23.044 -25.2885 21.124L-26.1845 16.388C-26.3125 14.852 -26.3125 12.804 -26.1845 10.244C-26.0565 6.78799 -25.9285 4.74 -25.9285 4.1C-25.9285 2.948 -26.5685 2.436 -27.8485 2.436C-28.1045 2.436 -28.3605 2.436 -28.6165 2.564C-28.8725 2.436 -29.1285 2.436 -29.3845 2.436C-30.7925 2.436 -32.3285 5.38 -33.2245 5.76399C-33.6085 5.892 -33.9925 5.892 -34.3765 5.892C-35.5285 5.892 -37.3205 5.38 -39.4965 4.48399L-44.3605 2.564C-46.9205 1.796 -49.9925 1.284 -53.4485 1.02799L-62.5365 0.643997C-63.1765 1.156 -64.0725 1.53999 -65.0965 1.668C-65.8645 1.796 -66.8885 1.796 -68.1685 1.668C-69.5765 1.53999 -70.6005 1.53999 -70.9845 1.53999C-74.0565 1.668 -77.3845 3.076 -80.8405 5.508C-84.9365 8.452 -87.8805 10.244 -89.6725 10.756C-90.6965 11.652 -91.4645 12.292 -91.8485 12.804C-92.3605 13.188 -94.7925 13.444 -95.3045 14.34C-95.6885 16.26 -96.7125 19.204 -98.3765 23.172C-100.296 27.652 -101.96 30.212 -103.112 30.852C-103.368 31.876 -103.624 32.9 -103.752 33.924C-104.136 35.332 -104.52 36.1 -105.16 36.228C-105.16 37.636 -105.288 38.788 -105.672 39.556L-106.441 41.732C-106.825 43.652 -106.825 46.212 -106.569 49.284C-106.184 52.74 -105.672 55.044 -104.776 56.196C-104.776 56.324 -104.648 56.836 -104.52 57.86C-104.392 58.5 -104.648 59.012 -105.032 59.396C-105.288 60.036 -105.416 60.804 -105.416 61.572C-105.416 63.492 -104.136 66.052 -101.704 68.996C-99.0165 72.324 -97.4805 74.756 -97.0965 76.292C-96.4565 76.676 -96.0725 77.06 -95.6885 77.572L-94.1525 77.7C-88.6485 84.484 -81.6085 88.964 -73.2885 91.396C-72.9045 91.012 -72.3925 90.756 -71.8805 90.756C-70.9845 90.756 -69.9605 91.652 -68.6805 93.444C-67.4005 93.316 -66.5045 93.06 -65.8645 92.676C-65.3525 92.676 -63.6885 93.7 -63.0485 93.7C-62.7925 93.7 -62.5365 93.572 -62.2805 93.444C-61.1285 92.676 -60.2325 92.292 -59.4645 92.292C-58.4405 92.292 -56.0085 93.444 -54.9845 93.444C-54.6005 93.444 -52.6805 92.676 -49.2245 91.012C-47.9445 90.5 -45.7685 90.244 -42.8245 90.244H-40.7765C-37.9605 90.116 -36.0405 89.86 -34.8885 89.476C-33.4805 88.836 -31.4325 87.044 -29.0005 84.228C-26.0565 80.9 -24.1365 78.852 -23.3685 78.212ZM97.2755 89.86C97.6595 87.428 97.0195 85.38 95.3555 83.716C93.9475 83.204 91.0035 82.692 86.6515 82.308C83.7075 82.052 80.5075 80.772 77.3075 78.34C74.1075 75.268 71.4195 72.58 69.3715 70.404C67.4515 70.02 66.0435 69.508 65.4035 69.124C64.2515 68.356 63.8675 67.076 63.9955 65.412C62.2035 65.028 60.2835 63.364 58.1075 60.676C55.5475 57.348 53.7555 55.3 52.7315 54.66L49.9155 52.868C48.7635 51.972 48.3795 51.076 48.5075 50.18C48.6355 49.668 49.7875 48.9 52.2195 48.004L56.8275 46.468C57.9795 45.956 59.6435 44.932 61.6915 43.396C63.8675 41.732 65.1475 40.452 65.7875 39.428C66.4275 38.276 67.1955 34.564 68.3475 33.028C68.9875 30.596 69.2435 28.804 68.9875 27.652C69.2435 26.756 69.3715 25.732 69.3715 24.836C69.3715 20.484 66.8115 15.364 61.6915 9.604C59.6435 9.092 60.0275 7.684 58.3635 6.78799C55.8035 5.38 53.6275 4.868 52.6035 4.356C50.8115 4.48399 49.5315 4.612 48.6355 4.868C48.5075 4.868 47.7395 4.74 46.4595 4.356C45.5635 4.1 44.9235 4.1 44.2835 4.228C42.1075 4.612 40.6995 4.868 39.9315 4.74C39.2915 4.612 38.0115 4.228 35.8355 3.46C34.9395 3.076 33.6595 3.33199 31.9955 4.1C31.0995 4.1 29.3075 3.84399 26.6195 3.46C24.3155 3.076 22.5235 3.076 21.3715 3.20399C20.2195 3.84399 19.3235 4.356 18.9395 4.74C18.0435 4.868 16.1235 4.74 13.4355 4.1C10.7475 3.46 9.2115 3.33199 8.8275 3.46C7.5475 4.356 6.3955 4.74 5.2435 4.74C4.2195 4.74 2.0435 4.1 0.8915 4.1C0.2515 4.1 -0.3885 4.228 -1.1565 4.356C-2.8205 4.868 -4.4845 4.74 -6.0205 3.84399C-7.9405 4.74 -8.8365 6.14799 -8.8365 8.196C-8.8365 8.836 -8.5805 9.476 -8.0685 10.116C-7.0445 11.268 -4.8685 11.908 -1.6685 12.036C1.2755 12.164 3.4515 13.316 4.8595 15.492C5.7555 16.132 6.2675 17.54 6.3955 19.716C6.6515 26.244 6.7795 37.124 6.7795 52.484C6.7795 53.124 6.5235 54.66 6.1395 57.22C5.7555 59.78 5.4995 61.188 5.4995 61.316C6.1395 63.748 6.3955 67.076 6.3955 71.3C6.3955 76.036 6.3955 78.468 6.3955 78.468L4.8595 81.54C4.2195 82.692 3.5795 83.332 2.6835 83.46C0.6355 83.332 -1.4125 83.716 -3.3325 84.868C-5.2525 85.892 -6.2765 87.044 -6.2765 88.196C-6.2765 89.092 -5.6365 89.86 -4.4845 90.5C-2.0525 91.396 -0.3885 91.908 0.7635 92.164C1.9155 91.268 3.0675 90.884 3.9635 90.884C4.9875 90.884 7.2915 92.164 8.8275 92.164L11.2595 90.244C13.1795 89.86 17.5315 91.012 19.0675 90.884L20.6035 90.116C21.1155 89.86 21.7555 89.86 22.3955 90.116C23.4195 90.5 25.3395 90.628 28.2835 90.628C31.4835 90.628 33.2755 90.372 33.7875 89.86C34.0435 89.604 34.1715 89.22 34.1715 88.708C34.1715 87.3 33.4035 85.892 31.7395 84.484C29.8195 82.82 27.3875 81.796 24.4435 81.412C23.4195 81.284 22.0115 78.084 22.0115 76.676C22.0115 76.804 21.8835 74.244 21.7555 68.868C21.6275 65.924 21.7555 63.364 22.1395 61.188C21.7555 59.908 21.4995 58.756 21.4995 57.604C21.4995 53.892 23.1635 51.844 26.3635 51.332L29.4355 52.868L34.0435 53.764C34.8115 54.66 35.9635 56.452 37.4995 59.012C39.0355 61.572 40.4435 63.492 41.7235 64.772C42.7475 65.668 43.5155 66.308 44.1555 66.692C45.8195 69.252 47.2275 71.94 49.9155 74.372C50.8115 75.78 51.1955 76.932 51.3235 77.828C53.1155 80.772 54.5235 82.82 55.6755 84.228C56.5715 83.972 57.8515 84.612 59.6435 86.276L63.3555 89.348C65.0195 90.244 66.9395 90.628 69.3715 90.756C70.5235 90.628 71.5475 90.628 72.6995 90.628C74.1075 91.524 76.9235 91.908 81.0195 91.78C86.0115 91.652 88.9555 91.78 89.9795 91.908C90.4915 92.036 92.5395 93.316 93.0515 93.188C94.5875 92.292 95.8675 91.396 96.7635 90.628L97.2755 89.86ZM51.0675 37.764C49.9155 37.892 49.1475 38.148 48.8915 38.788C48.2515 40.452 47.6115 41.604 46.9715 42.244L44.0275 44.42C41.7235 44.804 39.4195 45.444 37.2435 46.468C36.0915 47.108 35.0675 47.236 34.0435 47.108C32.7635 46.852 31.8675 46.852 31.2275 46.98C29.0515 47.62 27.5155 48.26 26.4915 48.644C24.8275 48.004 23.5475 47.492 22.7795 47.364C22.3955 47.108 22.1395 46.596 22.1395 45.828C22.1395 44.804 22.7795 41.988 22.7795 41.092L21.2435 38.02C20.9875 36.996 20.8595 35.076 20.8595 32.26C20.8595 19.844 21.8835 12.932 23.9315 11.524C25.9795 11.14 27.6435 11.012 29.0515 10.884C29.6915 11.14 30.3315 11.268 30.7155 11.268C31.8675 11.268 32.8915 9.988 33.9155 9.988C38.6515 10.372 41.4675 11.524 42.3635 13.316C45.4355 15.62 47.2275 17.924 47.6115 20.356C49.1475 22.276 50.0435 25.092 50.2995 28.804C50.8115 34.692 51.0675 37.636 51.0675 37.764ZM191.982 7.684C194.926 6.404 196.334 5.38 196.334 4.48399C196.334 3.20399 193.134 2.436 186.734 2.17999L175.726 1.796C172.014 3.20399 168.814 3.33199 166.126 2.436C163.566 2.81999 162.542 4.356 163.054 6.78799C163.95 7.93999 164.974 8.452 166.254 8.57999C168.686 8.70799 170.35 8.836 170.99 9.21999C171.374 9.476 172.014 10.244 172.91 11.524C173.806 12.804 174.446 13.444 174.574 13.444C175.726 17.284 175.854 20.612 175.086 23.556C175.47 23.812 175.726 24.708 175.854 26.244C175.982 27.268 175.982 28.676 175.854 30.468C175.726 32.644 175.598 33.668 175.598 33.54L174.958 34.564C175.214 35.972 175.214 37.764 174.83 40.196C175.214 41.604 175.342 46.34 175.214 54.276C175.086 62.468 174.574 67.076 173.934 68.1C174.19 69.764 173.294 72.068 171.118 75.268C169.07 78.468 167.278 80.26 165.742 80.9C164.59 81.412 161.902 81.028 159.854 82.692C155.502 83.46 153.326 83.844 153.198 83.844C152.558 83.844 152.046 83.844 151.662 83.716C150.254 85.124 148.846 84.996 147.566 83.332C147.182 83.46 146.542 83.588 145.902 83.588C143.47 83.588 140.782 82.948 137.71 81.54C134.382 80.004 132.59 78.468 132.333 76.804C129.518 76.164 128.11 74.628 128.11 72.452C128.11 72.068 128.238 71.556 128.366 71.044C126.702 67.332 125.934 64.644 126.19 62.98C125.422 61.572 125.166 58.884 125.294 55.044C125.422 50.82 125.294 47.876 124.782 46.468L125.934 44.164C126.318 43.012 126.446 42.244 126.318 41.86C125.422 40.452 124.91 39.428 124.91 38.788L125.294 35.716C125.422 21.38 125.55 14.212 125.678 14.212C126.702 12.932 127.598 12.292 128.494 12.292C128.878 11.524 130.798 10.628 133.998 9.476C136.942 8.57999 138.478 7.556 138.478 6.532C138.478 5.63599 137.71 4.612 136.046 3.33199L124.782 4.228C123.886 3.588 122.734 3.33199 121.07 3.716C120.558 4.1 119.918 4.356 119.15 4.356C118.253 4.356 115.438 3.716 114.414 3.716C113.262 2.81999 112.366 2.436 111.854 2.436C111.214 2.436 110.446 2.81999 109.294 3.588C110.062 3.46 108.014 3.46 103.15 3.46C99.9495 3.46 98.0295 4.868 97.6455 7.684C98.2855 8.70799 100.462 9.85999 104.174 11.012C107.118 12.036 108.526 13.7 108.526 15.876C108.526 17.284 107.63 21.124 107.63 23.172C107.63 24.836 107.885 27.268 108.27 30.468C108.654 33.668 108.91 35.972 108.91 37.508C108.91 39.172 108.654 40.836 108.27 42.244C108.014 49.028 108.014 54.916 108.27 59.652C108.27 60.292 108.654 61.188 109.55 62.212C109.422 63.364 109.678 65.156 110.062 67.46C110.446 70.02 110.702 71.812 110.702 72.964C112.366 75.908 113.39 78.212 113.902 79.748C114.286 80.26 116.206 80.9 116.333 81.924C116.974 82.308 118.382 83.588 120.302 85.508C121.838 87.172 123.246 88.196 124.526 88.58C125.166 88.836 126.574 89.092 128.494 89.22C130.542 89.348 131.822 89.476 132.333 89.86C133.486 90.756 134.382 91.524 134.766 92.164C135.278 92.292 135.79 92.42 136.174 92.42C136.814 92.42 138.35 92.036 138.99 92.036C140.142 92.036 141.55 92.548 143.214 93.444C145.134 93.572 148.078 93.188 152.046 92.42C155.758 91.78 158.574 91.524 160.238 91.78C166.382 88.196 171.246 84.612 174.701 81.028C176.11 80.772 177.518 79.492 179.182 77.188C181.23 74.244 182.51 72.452 183.15 72.068C184.302 67.46 184.814 60.932 184.814 52.612C184.814 48.772 184.558 46.724 183.918 46.468C184.814 45.316 185.198 43.78 185.198 42.116V37.636C184.814 34.692 184.686 32.132 184.814 30.212C185.198 24.068 185.454 18.436 185.454 13.444C186.094 12.292 186.606 11.396 186.734 10.756C187.246 9.988 188.27 9.348 189.678 8.964C191.214 8.57999 191.982 8.06799 191.982 7.684ZM295.437 85.38C293.773 85.508 291.725 84.868 289.293 83.588C287.373 82.564 285.453 81.54 283.533 80.388C277.645 70.532 272.396 63.108 267.789 57.86C265.741 54.404 264.461 51.716 264.077 50.052C263.821 49.668 263.181 49.028 262.029 48.26C261.261 47.62 260.749 46.596 260.493 44.932C259.213 42.884 258.573 41.604 258.573 40.964C258.573 40.58 258.957 40.068 259.853 39.556C261.261 38.788 262.285 38.02 263.053 37.252C263.437 35.716 263.821 34.564 263.949 33.796C265.485 32.26 266.765 31.108 267.789 30.34C269.709 28.164 271.501 22.532 273.549 20.356C274.189 18.18 276.237 16.26 279.949 14.852C281.741 12.164 284.685 10.372 288.781 9.476C292.237 8.836 293.901 7.684 293.901 6.27599C293.901 5.508 293.645 4.612 293.261 3.46L288.781 2.69199C288.525 2.948 288.013 3.076 287.373 3.076C286.477 3.076 282.893 2.308 281.869 2.436C277.261 3.46 275.981 3.97199 273.805 3.97199C272.781 3.97199 271.245 3.84399 269.069 3.716C267.021 3.588 265.485 3.46 264.589 3.46C263.309 3.46 262.157 3.588 261.261 3.716C259.597 4.612 258.573 5.252 257.933 5.892C257.677 6.27599 257.549 6.78799 257.549 7.172C257.549 8.57999 258.573 9.348 260.749 9.348C261.517 9.348 262.157 9.21999 262.797 8.836C266.125 9.988 267.789 12.164 267.789 15.492C267.789 18.18 266.637 20.356 264.333 22.148C263.437 24.068 262.541 25.22 261.645 25.86C260.749 28.548 260.493 31.108 257.421 33.028C256.909 33.412 256.397 34.18 255.757 35.588C255.117 36.868 254.605 37.508 254.221 37.508L253.709 37.252C251.917 35.844 250.253 33.668 248.717 30.852L245.133 23.428C244.877 22.788 243.981 21.764 242.444 20.356C240.909 18.82 240.141 17.668 240.013 17.028C239.757 15.876 239.885 14.596 240.397 12.932C240.781 12.42 241.165 11.524 241.549 10.116C241.933 9.21999 242.701 8.324 243.853 7.684C244.493 7.93999 245.005 8.06799 245.645 8.06799C247.181 8.06799 247.949 7.3 247.949 5.76399C247.949 4.612 247.437 3.588 246.413 2.69199C245.517 2.564 243.725 2.69199 240.909 3.33199C237.708 3.97199 235.021 4.356 232.717 4.356C229.517 4.356 226.189 3.84399 222.733 2.69199C221.708 3.33199 220.812 3.588 219.917 3.588C220.045 3.588 218.509 3.20399 215.053 2.436L213.133 3.588C212.621 3.46 212.109 3.46 211.469 3.46C209.549 3.46 207.757 3.84399 206.093 4.612C204.172 5.508 203.148 6.78799 203.148 8.196C203.148 9.85999 203.788 10.756 204.941 10.756C205.581 10.756 207.501 9.988 207.629 9.988C207.757 10.116 209.933 10.756 214.157 12.036C216.589 12.804 218.253 14.34 219.149 16.516C219.661 16.388 220.812 17.412 222.733 19.844C223.885 21.38 224.909 22.916 226.061 24.324C225.805 25.732 225.933 26.628 226.445 27.012C227.341 27.012 229.005 28.676 231.181 32.132C233.357 35.46 234.509 37.636 234.381 38.788C235.277 39.172 236.685 40.708 238.861 43.268C241.037 45.7 242.444 47.364 242.957 48.26C243.341 49.028 242.957 50.18 241.805 51.716C241.933 52.356 241.549 53.252 240.653 54.276L238.604 56.324L233.997 63.492C231.437 67.204 230.029 69.124 229.645 69.252C229.005 71.172 227.469 73.348 225.293 75.524C223.117 77.7 221.069 79.108 219.149 79.876C217.997 81.54 215.693 82.692 212.493 83.332C209.933 83.716 207.373 83.972 204.684 84.228C203.66 85.892 203.148 87.3 203.148 88.324C204.044 90.244 205.709 91.14 208.141 91.14C209.293 91.14 210.701 90.884 212.621 90.5C213.389 90.372 214.285 90.5 215.181 90.884C216.461 91.524 217.229 91.78 217.613 91.78C218.253 91.908 219.533 91.14 221.325 89.732C222.733 90.628 224.269 91.268 226.189 91.396C226.829 91.524 227.981 91.14 229.389 90.5C230.157 90.116 232.077 90.116 235.149 90.372C238.221 90.628 240.141 90.5 241.037 89.988C242.317 89.348 242.957 88.324 242.957 86.66C242.957 85.508 242.573 84.612 241.933 83.844C238.861 84.484 236.557 83.716 235.149 81.796C235.021 79.364 236.173 74.5 237.581 72.964V71.684C238.861 68.996 240.653 66.052 242.829 62.852C245.773 58.5 247.821 56.58 248.973 57.22C249.741 57.604 250.253 58.244 250.381 59.012C250.765 60.164 251.021 60.804 251.277 61.188C252.557 62.468 253.581 63.364 254.349 63.748C254.605 64.132 255.629 65.796 257.293 68.868C259.085 71.812 260.109 73.604 260.237 74.116C262.413 76.036 264.077 78.212 265.485 80.644C264.717 83.332 263.181 84.868 260.749 84.996C257.549 84.868 250.765 84.996 251.789 88.836C252.685 91.012 253.965 92.164 255.885 92.164C256.909 92.164 259.597 91.652 260.493 91.524C261.133 91.396 262.029 91.652 262.925 92.292C264.077 92.42 265.101 92.548 265.997 92.548C269.069 92.548 274.701 90.5 277.773 90.5C279.181 90.5 280.589 90.628 282.125 91.012C282.509 91.14 283.021 91.012 283.661 90.884C284.301 90.756 284.941 90.756 285.453 90.884C285.837 91.012 286.477 91.268 287.373 91.908C288.013 92.42 288.781 92.676 289.549 92.676C292.749 93.06 296.845 91.012 296.845 88.068C296.845 87.556 296.717 87.044 296.589 86.532L295.437 85.38ZM391.341 12.036C392.237 10.5 393.517 9.73199 395.181 9.73199C396.333 9.73199 399.021 10.5 399.661 10.5C400.813 10.5 401.453 9.604 401.453 7.684C401.453 5.252 399.533 3.33199 396.973 3.33199C393.645 3.716 391.085 4.1 389.421 4.48399C383.661 4.868 379.309 4.99599 376.109 4.74C374.573 4.612 370.733 3.20399 369.069 3.20399C368.429 3.20399 367.789 3.33199 367.149 3.588C364.333 4.612 362.925 6.14799 362.925 8.06799C362.925 8.70799 363.181 9.092 363.565 9.476C363.949 9.73199 366.125 9.988 370.093 10.116C372.653 10.244 374.445 11.14 375.597 12.932C375.725 13.06 375.853 13.444 375.853 13.828C376.109 15.236 376.109 17.924 375.981 21.892C375.853 25.732 375.981 28.676 376.493 30.596C376.621 31.108 376.621 31.876 376.365 32.9C376.237 33.924 376.237 34.692 376.365 35.204C375.853 38.532 375.469 41.348 375.34 43.524C373.933 43.652 372.909 43.78 372.141 43.78C371.373 43.652 369.965 43.908 367.789 44.548C365.741 45.06 364.205 45.316 363.181 45.188C362.669 45.188 361.645 44.932 360.237 44.42C358.829 43.78 358.061 43.524 357.677 43.524C356.781 43.652 355.629 44.036 353.965 44.932C350.381 44.932 345.517 43.908 342.829 43.908C341.549 43.908 340.141 44.036 338.604 44.164C338.733 44.164 337.837 44.164 335.917 44.164C335.533 44.036 334.381 44.676 332.333 45.956C329.901 46.084 328.749 45.188 328.749 43.524C328.749 43.14 328.877 42.628 329.133 41.988L329.005 34.308C329.005 33.156 330.285 31.108 330.285 29.7C330.285 29.316 330.157 28.804 330.029 28.42C329.901 28.036 329.901 25.476 329.773 20.868C329.773 16.388 329.773 13.828 329.901 13.444C330.285 11.78 331.949 10.372 334.765 9.21999C337.581 8.06799 338.989 7.3 338.989 6.66C338.989 6.27599 338.733 5.76399 338.221 5.252C337.325 4.868 335.149 4.612 331.437 4.48399C328.237 4.356 326.317 4.1 325.677 3.46C322.477 4.356 319.021 4.868 315.309 4.99599C313.773 4.99599 313.389 3.97199 312.493 3.97199C311.853 3.97199 310.701 4.228 309.036 4.74C308.653 4.356 308.269 4.228 307.757 4.228C307.629 4.228 306.605 4.612 304.941 5.252C304.556 5.63599 304.3 6.14799 304.3 6.66C304.3 8.70799 307.245 11.14 309.165 11.14C309.677 10.756 310.189 10.5 310.573 10.5C313.005 10.5 314.541 15.62 314.541 20.74C314.541 22.66 314.285 24.196 313.901 25.348C313.901 26.884 314.029 29.828 314.285 34.308C314.541 38.02 314.669 41.092 314.541 43.396C314.541 44.164 314.413 46.468 314.157 50.18C314.029 52.996 313.901 55.3 313.901 57.092C313.901 57.988 314.541 60.804 314.413 61.956C314.029 65.156 313.773 66.692 313.645 66.308L314.029 68.868C314.157 70.02 314.157 70.788 314.029 71.044C313.133 72.452 312.749 73.732 312.749 74.628C312.749 76.036 314.413 78.468 314.413 79.62C314.413 81.156 312.493 82.564 308.525 83.716C304.556 84.868 302.636 86.276 302.636 87.684C302.636 88.324 302.892 88.964 303.276 89.604L306.861 92.42C308.397 91.268 310.829 90.628 314.157 90.5L321.965 90.244C325.165 89.86 327.469 89.86 328.877 90.372C331.437 91.268 333.741 91.268 335.917 90.628C336.173 90.5 336.557 90.372 336.941 90.372C338.861 90.244 340.013 90.116 340.269 89.732C340.653 89.092 340.781 88.196 340.653 87.3C340.525 86.148 340.013 85.636 339.117 85.508L336.429 86.148C335.533 86.02 334.381 85.38 332.845 84.1C331.309 82.82 330.413 81.796 330.285 80.9C330.157 80.004 330.157 78.212 330.157 75.396C330.157 73.476 329.773 71.556 329.005 69.892C328.877 69.636 328.749 67.46 328.493 63.236C328.365 59.012 328.237 56.836 328.237 56.708C329.133 55.812 329.645 55.044 329.645 54.276C329.645 53.892 329.389 52.996 329.389 52.868C329.389 52.228 329.773 51.716 330.669 51.204C331.821 51.076 333.741 51.332 336.429 51.844C339.245 52.228 340.909 52.356 341.549 52.228C344.749 51.46 347.309 51.076 349.101 51.076C350.765 51.076 353.069 51.46 356.269 52.1C357.933 52.484 362.029 51.204 363.437 51.204C364.717 51.204 365.869 51.588 367.021 52.484C367.917 52.612 369.069 52.612 370.477 52.228L373.933 51.46L375.469 52.74C375.469 53.892 375.597 55.812 375.981 58.628C376.237 61.06 376.365 62.98 376.365 64.388C376.365 66.052 376.237 67.588 375.853 68.996C375.853 71.812 375.853 74.628 375.725 77.316C375.597 80.516 374.317 82.82 371.885 84.228C370.349 85.124 369.452 85.636 369.325 85.892C367.789 86.02 365.357 84.484 364.461 84.484C363.181 84.484 362.541 85.252 362.541 86.66C362.541 87.3 362.925 88.708 363.565 90.884C364.333 91.396 365.229 91.652 366.253 91.652C366.637 91.652 367.661 91.524 369.325 91.268C370.604 91.14 371.629 91.14 372.396 91.268C374.317 91.652 375.085 91.78 374.701 91.78C376.109 91.268 377.005 90.884 377.517 90.5C378.157 90.372 379.053 90.5 380.461 90.884C381.869 91.396 382.765 91.652 383.149 91.524C386.861 90.116 388.909 89.476 389.037 89.476C390.189 89.476 391.341 89.86 392.749 90.756C393.901 90.884 394.797 90.884 395.437 90.628C395.949 90.628 397.741 91.652 398.381 91.652C399.533 91.652 400.173 91.012 400.173 89.604C400.173 87.94 399.405 86.404 397.741 85.124C393.517 85.38 391.469 82.436 391.469 76.292C391.469 74.884 391.597 73.22 391.725 71.172C391.981 68.74 392.109 67.46 392.109 67.076C392.237 65.412 391.085 62.724 391.085 61.316C391.085 60.42 391.213 59.524 391.597 58.628V52.484C390.957 51.844 390.701 51.076 390.701 50.18C390.701 49.668 390.957 48.516 391.341 46.852C391.725 45.444 391.725 44.292 391.597 43.652C390.701 40.196 390.445 35.588 390.829 29.828C390.829 29.316 390.957 28.292 391.341 26.884C391.597 25.732 391.725 24.708 391.725 23.812C391.341 19.46 391.213 15.492 391.341 12.036Z" fill="#FFD56F"/>
</svg>
